<mxfile host="app.diagrams.net" agent="Mozilla/5.0 (Windows NT 10.0; Win64; x64) AppleWebKit/537.36 (KHTML, like Gecko) Chrome/140.0.0.0 Safari/537.36 Edg/140.0.0.0" version="28.2.5">
  <diagram name="第 1 页" id="5vEiagGdZFPazgWDmFvt">
    <mxGraphModel dx="863" dy="893" grid="1" gridSize="10" guides="1" tooltips="1" connect="1" arrows="1" fold="1" page="1" pageScale="1" pageWidth="1200" pageHeight="400" math="0" shadow="0">
      <root>
        <mxCell id="0" />
        <mxCell id="1" parent="0" />
        <mxCell id="u4fcJptLiR1B9dmW7SNI-36" value="" style="rounded=0;whiteSpace=wrap;html=1;" vertex="1" parent="1">
          <mxGeometry x="560" y="125" width="230" height="90" as="geometry" />
        </mxCell>
        <mxCell id="u4fcJptLiR1B9dmW7SNI-18" value="" style="rounded=0;whiteSpace=wrap;html=1;" vertex="1" parent="1">
          <mxGeometry x="90" y="50" width="300" height="300" as="geometry" />
        </mxCell>
        <mxCell id="u4fcJptLiR1B9dmW7SNI-1" value="&lt;font face=&quot;Times New Roman&quot; style=&quot;font-size: 20px;&quot;&gt;PE&lt;/font&gt;" style="rounded=0;whiteSpace=wrap;html=1;" vertex="1" parent="1">
          <mxGeometry x="110" y="70" width="50" height="50" as="geometry" />
        </mxCell>
        <mxCell id="u4fcJptLiR1B9dmW7SNI-2" value="&lt;span style=&quot;font-family: &amp;quot;Times New Roman&amp;quot;; font-size: 20px;&quot;&gt;PE&lt;/span&gt;" style="rounded=0;whiteSpace=wrap;html=1;" vertex="1" parent="1">
          <mxGeometry x="180" y="70" width="50" height="50" as="geometry" />
        </mxCell>
        <mxCell id="u4fcJptLiR1B9dmW7SNI-3" value="" style="rounded=0;whiteSpace=wrap;html=1;" vertex="1" parent="1">
          <mxGeometry x="250" y="70" width="50" height="50" as="geometry" />
        </mxCell>
        <mxCell id="u4fcJptLiR1B9dmW7SNI-57" value="" style="edgeStyle=orthogonalEdgeStyle;rounded=0;orthogonalLoop=1;jettySize=auto;html=1;" edge="1" parent="1" source="u4fcJptLiR1B9dmW7SNI-4" target="u4fcJptLiR1B9dmW7SNI-49">
          <mxGeometry relative="1" as="geometry" />
        </mxCell>
        <mxCell id="u4fcJptLiR1B9dmW7SNI-4" value="&lt;span style=&quot;font-family: &amp;quot;Times New Roman&amp;quot;; font-size: 20px;&quot;&gt;PE&lt;/span&gt;" style="rounded=0;whiteSpace=wrap;html=1;" vertex="1" parent="1">
          <mxGeometry x="320" y="70" width="50" height="50" as="geometry" />
        </mxCell>
        <mxCell id="u4fcJptLiR1B9dmW7SNI-6" value="&lt;span style=&quot;font-family: &amp;quot;Times New Roman&amp;quot;; font-size: 20px;&quot;&gt;PE&lt;/span&gt;" style="rounded=0;whiteSpace=wrap;html=1;" vertex="1" parent="1">
          <mxGeometry x="110" y="140" width="50" height="50" as="geometry" />
        </mxCell>
        <mxCell id="u4fcJptLiR1B9dmW7SNI-7" value="&lt;span style=&quot;font-family: &amp;quot;Times New Roman&amp;quot;; font-size: 20px;&quot;&gt;PE&lt;/span&gt;" style="rounded=0;whiteSpace=wrap;html=1;" vertex="1" parent="1">
          <mxGeometry x="180" y="140" width="50" height="50" as="geometry" />
        </mxCell>
        <mxCell id="u4fcJptLiR1B9dmW7SNI-8" value="" style="rounded=0;whiteSpace=wrap;html=1;" vertex="1" parent="1">
          <mxGeometry x="250" y="140" width="50" height="50" as="geometry" />
        </mxCell>
        <mxCell id="u4fcJptLiR1B9dmW7SNI-67" value="" style="edgeStyle=orthogonalEdgeStyle;rounded=0;orthogonalLoop=1;jettySize=auto;html=1;" edge="1" parent="1" source="u4fcJptLiR1B9dmW7SNI-9" target="u4fcJptLiR1B9dmW7SNI-50">
          <mxGeometry relative="1" as="geometry" />
        </mxCell>
        <mxCell id="u4fcJptLiR1B9dmW7SNI-9" value="&lt;span style=&quot;font-family: &amp;quot;Times New Roman&amp;quot;; font-size: 20px;&quot;&gt;PE&lt;/span&gt;" style="rounded=0;whiteSpace=wrap;html=1;" vertex="1" parent="1">
          <mxGeometry x="320" y="140" width="50" height="50" as="geometry" />
        </mxCell>
        <mxCell id="u4fcJptLiR1B9dmW7SNI-10" value="" style="rounded=0;whiteSpace=wrap;html=1;" vertex="1" parent="1">
          <mxGeometry x="110" y="210" width="50" height="50" as="geometry" />
        </mxCell>
        <mxCell id="u4fcJptLiR1B9dmW7SNI-11" value="" style="rounded=0;whiteSpace=wrap;html=1;" vertex="1" parent="1">
          <mxGeometry x="180" y="210" width="50" height="50" as="geometry" />
        </mxCell>
        <mxCell id="u4fcJptLiR1B9dmW7SNI-12" value="" style="rounded=0;whiteSpace=wrap;html=1;" vertex="1" parent="1">
          <mxGeometry x="250" y="210" width="50" height="50" as="geometry" />
        </mxCell>
        <mxCell id="u4fcJptLiR1B9dmW7SNI-13" value="" style="rounded=0;whiteSpace=wrap;html=1;" vertex="1" parent="1">
          <mxGeometry x="320" y="210" width="50" height="50" as="geometry" />
        </mxCell>
        <mxCell id="u4fcJptLiR1B9dmW7SNI-14" value="&lt;span style=&quot;font-family: &amp;quot;Times New Roman&amp;quot;; font-size: 20px;&quot;&gt;PE&lt;/span&gt;" style="rounded=0;whiteSpace=wrap;html=1;" vertex="1" parent="1">
          <mxGeometry x="110" y="280" width="50" height="50" as="geometry" />
        </mxCell>
        <mxCell id="u4fcJptLiR1B9dmW7SNI-15" value="&lt;span style=&quot;font-family: &amp;quot;Times New Roman&amp;quot;; font-size: 20px;&quot;&gt;PE&lt;/span&gt;" style="rounded=0;whiteSpace=wrap;html=1;" vertex="1" parent="1">
          <mxGeometry x="180" y="280" width="50" height="50" as="geometry" />
        </mxCell>
        <mxCell id="u4fcJptLiR1B9dmW7SNI-16" value="" style="rounded=0;whiteSpace=wrap;html=1;" vertex="1" parent="1">
          <mxGeometry x="250" y="280" width="50" height="50" as="geometry" />
        </mxCell>
        <mxCell id="u4fcJptLiR1B9dmW7SNI-68" value="" style="edgeStyle=orthogonalEdgeStyle;rounded=0;orthogonalLoop=1;jettySize=auto;html=1;" edge="1" parent="1" source="u4fcJptLiR1B9dmW7SNI-17" target="u4fcJptLiR1B9dmW7SNI-51">
          <mxGeometry relative="1" as="geometry" />
        </mxCell>
        <mxCell id="u4fcJptLiR1B9dmW7SNI-17" value="&lt;span style=&quot;font-family: &amp;quot;Times New Roman&amp;quot;; font-size: 20px;&quot;&gt;PE&lt;/span&gt;" style="rounded=0;whiteSpace=wrap;html=1;" vertex="1" parent="1">
          <mxGeometry x="320" y="280" width="50" height="50" as="geometry" />
        </mxCell>
        <mxCell id="u4fcJptLiR1B9dmW7SNI-19" value="&lt;font style=&quot;font-size: 19px;&quot; face=&quot;Times New Roman&quot;&gt;...&lt;/font&gt;" style="text;html=1;align=center;verticalAlign=middle;resizable=0;points=[];autosize=1;strokeColor=none;fillColor=none;" vertex="1" parent="1">
          <mxGeometry x="255" y="70" width="40" height="40" as="geometry" />
        </mxCell>
        <mxCell id="u4fcJptLiR1B9dmW7SNI-20" value="&lt;font style=&quot;font-size: 19px;&quot; face=&quot;Times New Roman&quot;&gt;...&lt;/font&gt;" style="text;html=1;align=center;verticalAlign=middle;resizable=0;points=[];autosize=1;strokeColor=none;fillColor=none;" vertex="1" parent="1">
          <mxGeometry x="255" y="140" width="40" height="40" as="geometry" />
        </mxCell>
        <mxCell id="u4fcJptLiR1B9dmW7SNI-21" value="&lt;font style=&quot;font-size: 19px;&quot; face=&quot;Times New Roman&quot;&gt;...&lt;/font&gt;" style="text;html=1;align=center;verticalAlign=middle;resizable=0;points=[];autosize=1;strokeColor=none;fillColor=none;" vertex="1" parent="1">
          <mxGeometry x="255" y="280" width="40" height="40" as="geometry" />
        </mxCell>
        <mxCell id="u4fcJptLiR1B9dmW7SNI-22" value="&lt;font style=&quot;font-size: 19px;&quot; face=&quot;Times New Roman&quot;&gt;...&lt;/font&gt;" style="text;html=1;align=center;verticalAlign=middle;resizable=0;points=[];autosize=1;strokeColor=none;fillColor=none;rotation=90;" vertex="1" parent="1">
          <mxGeometry x="330" y="215" width="40" height="40" as="geometry" />
        </mxCell>
        <mxCell id="u4fcJptLiR1B9dmW7SNI-23" value="&lt;font style=&quot;font-size: 19px;&quot; face=&quot;Times New Roman&quot;&gt;...&lt;/font&gt;" style="text;html=1;align=center;verticalAlign=middle;resizable=0;points=[];autosize=1;strokeColor=none;fillColor=none;rotation=90;" vertex="1" parent="1">
          <mxGeometry x="190" y="215" width="40" height="40" as="geometry" />
        </mxCell>
        <mxCell id="u4fcJptLiR1B9dmW7SNI-24" value="&lt;font style=&quot;font-size: 19px;&quot; face=&quot;Times New Roman&quot;&gt;...&lt;/font&gt;" style="text;html=1;align=center;verticalAlign=middle;resizable=0;points=[];autosize=1;strokeColor=none;fillColor=none;rotation=90;" vertex="1" parent="1">
          <mxGeometry x="120" y="215" width="40" height="40" as="geometry" />
        </mxCell>
        <mxCell id="u4fcJptLiR1B9dmW7SNI-26" value="&lt;font face=&quot;Times New Roman&quot; style=&quot;font-size: 19px;&quot;&gt;...&lt;/font&gt;" style="text;html=1;align=center;verticalAlign=middle;resizable=0;points=[];autosize=1;strokeColor=none;fillColor=none;rotation=45;" vertex="1" parent="1">
          <mxGeometry x="260" y="210" width="40" height="40" as="geometry" />
        </mxCell>
        <mxCell id="u4fcJptLiR1B9dmW7SNI-29" value="" style="rounded=0;whiteSpace=wrap;html=1;" vertex="1" parent="1">
          <mxGeometry x="550" y="135" width="230" height="90" as="geometry" />
        </mxCell>
        <mxCell id="u4fcJptLiR1B9dmW7SNI-28" value="" style="rounded=0;whiteSpace=wrap;html=1;" vertex="1" parent="1">
          <mxGeometry x="530" y="155" width="230" height="90" as="geometry" />
        </mxCell>
        <mxCell id="u4fcJptLiR1B9dmW7SNI-27" value="" style="rounded=0;whiteSpace=wrap;html=1;" vertex="1" parent="1">
          <mxGeometry x="520" y="165" width="230" height="90" as="geometry" />
        </mxCell>
        <mxCell id="u4fcJptLiR1B9dmW7SNI-34" value="&lt;font face=&quot;Times New Roman&quot; style=&quot;font-size: 20px;&quot;&gt;...&lt;/font&gt;" style="text;html=1;align=center;verticalAlign=middle;resizable=0;points=[];autosize=1;strokeColor=none;fillColor=none;rotation=-45;" vertex="1" parent="1">
          <mxGeometry x="520" y="125" width="40" height="40" as="geometry" />
        </mxCell>
        <mxCell id="u4fcJptLiR1B9dmW7SNI-37" value="&lt;font face=&quot;Times New Roman&quot;&gt;&lt;i&gt;uLUT Cluster&lt;/i&gt;&lt;/font&gt;" style="text;html=1;align=center;verticalAlign=middle;resizable=0;points=[];autosize=1;strokeColor=none;fillColor=none;" vertex="1" parent="1">
          <mxGeometry x="670" y="235" width="90" height="30" as="geometry" />
        </mxCell>
        <mxCell id="u4fcJptLiR1B9dmW7SNI-38" value="&lt;font face=&quot;Times New Roman&quot; style=&quot;font-size: 15px;&quot;&gt;Softmax &amp;amp; LayerNorm&lt;/font&gt;" style="rounded=0;whiteSpace=wrap;html=1;" vertex="1" parent="1">
          <mxGeometry x="890" y="250" width="130" height="60" as="geometry" />
        </mxCell>
        <mxCell id="u4fcJptLiR1B9dmW7SNI-40" value="" style="rounded=0;whiteSpace=wrap;html=1;" vertex="1" parent="1">
          <mxGeometry x="20" y="50" width="50" height="300" as="geometry" />
        </mxCell>
        <mxCell id="u4fcJptLiR1B9dmW7SNI-42" value="&lt;font style=&quot;font-size: 15px;&quot; face=&quot;Times New Roman&quot;&gt;DQ &amp;amp; Q&lt;/font&gt;" style="whiteSpace=wrap;html=1;" vertex="1" parent="1">
          <mxGeometry x="895" y="155" width="120" height="60" as="geometry" />
        </mxCell>
        <mxCell id="u4fcJptLiR1B9dmW7SNI-44" value="&lt;i style=&quot;font-family: &amp;quot;Times New Roman&amp;quot;; font-size: 13px;&quot;&gt;16*16 INT8 FGOSA&lt;/i&gt;" style="text;html=1;align=center;verticalAlign=middle;resizable=0;points=[];autosize=1;strokeColor=none;fillColor=none;" vertex="1" parent="1">
          <mxGeometry x="270" y="330" width="130" height="30" as="geometry" />
        </mxCell>
        <mxCell id="u4fcJptLiR1B9dmW7SNI-47" value="&lt;font style=&quot;font-size: 20px;&quot; face=&quot;Times New Roman&quot;&gt;Input Buffer&lt;/font&gt;" style="text;html=1;align=center;verticalAlign=middle;resizable=0;points=[];autosize=1;strokeColor=none;fillColor=none;rotation=90;" vertex="1" parent="1">
          <mxGeometry x="-15" y="180" width="120" height="40" as="geometry" />
        </mxCell>
        <mxCell id="u4fcJptLiR1B9dmW7SNI-48" value="&lt;font face=&quot;Times New Roman&quot; style=&quot;font-size: 20px;&quot;&gt;Weight Buffer&lt;/font&gt;" style="rounded=0;whiteSpace=wrap;html=1;" vertex="1" parent="1">
          <mxGeometry x="90" y="-20" width="300" height="50" as="geometry" />
        </mxCell>
        <mxCell id="u4fcJptLiR1B9dmW7SNI-61" value="" style="edgeStyle=orthogonalEdgeStyle;rounded=0;orthogonalLoop=1;jettySize=auto;html=1;" edge="1" parent="1" source="u4fcJptLiR1B9dmW7SNI-49">
          <mxGeometry relative="1" as="geometry">
            <mxPoint x="450" y="95" as="targetPoint" />
          </mxGeometry>
        </mxCell>
        <mxCell id="u4fcJptLiR1B9dmW7SNI-49" value="" style="shape=orEllipse;perimeter=ellipsePerimeter;whiteSpace=wrap;html=1;backgroundOutline=1;" vertex="1" parent="1">
          <mxGeometry x="400" y="80" width="30" height="30" as="geometry" />
        </mxCell>
        <mxCell id="u4fcJptLiR1B9dmW7SNI-50" value="" style="shape=orEllipse;perimeter=ellipsePerimeter;whiteSpace=wrap;html=1;backgroundOutline=1;" vertex="1" parent="1">
          <mxGeometry x="400" y="150" width="30" height="30" as="geometry" />
        </mxCell>
        <mxCell id="u4fcJptLiR1B9dmW7SNI-51" value="" style="shape=orEllipse;perimeter=ellipsePerimeter;whiteSpace=wrap;html=1;backgroundOutline=1;" vertex="1" parent="1">
          <mxGeometry x="400" y="290" width="30" height="30" as="geometry" />
        </mxCell>
        <mxCell id="u4fcJptLiR1B9dmW7SNI-64" value="" style="edgeStyle=orthogonalEdgeStyle;rounded=0;orthogonalLoop=1;jettySize=auto;html=1;" edge="1" parent="1">
          <mxGeometry relative="1" as="geometry">
            <mxPoint x="430" y="164.95" as="sourcePoint" />
            <mxPoint x="450" y="164.95" as="targetPoint" />
          </mxGeometry>
        </mxCell>
        <mxCell id="u4fcJptLiR1B9dmW7SNI-65" value="" style="edgeStyle=orthogonalEdgeStyle;rounded=0;orthogonalLoop=1;jettySize=auto;html=1;" edge="1" parent="1">
          <mxGeometry relative="1" as="geometry">
            <mxPoint x="430" y="304.95" as="sourcePoint" />
            <mxPoint x="450" y="304.95" as="targetPoint" />
          </mxGeometry>
        </mxCell>
        <mxCell id="u4fcJptLiR1B9dmW7SNI-69" value="&lt;font style=&quot;font-size: 19px;&quot; face=&quot;Times New Roman&quot;&gt;...&lt;/font&gt;" style="text;html=1;align=center;verticalAlign=middle;resizable=0;points=[];autosize=1;strokeColor=none;fillColor=none;rotation=90;" vertex="1" parent="1">
          <mxGeometry x="400" y="215" width="40" height="40" as="geometry" />
        </mxCell>
        <mxCell id="u4fcJptLiR1B9dmW7SNI-70" value="" style="rounded=0;whiteSpace=wrap;html=1;" vertex="1" parent="1">
          <mxGeometry x="450" y="50" width="50" height="300" as="geometry" />
        </mxCell>
        <mxCell id="u4fcJptLiR1B9dmW7SNI-71" value="&lt;font style=&quot;font-size: 20px;&quot; face=&quot;Times New Roman&quot;&gt;Partial Sum&lt;/font&gt;" style="text;html=1;align=center;verticalAlign=middle;resizable=0;points=[];autosize=1;strokeColor=none;fillColor=none;rotation=90;" vertex="1" parent="1">
          <mxGeometry x="415" y="175" width="120" height="40" as="geometry" />
        </mxCell>
        <mxCell id="u4fcJptLiR1B9dmW7SNI-74" value="&lt;font face=&quot;Times New Roman&quot;&gt;uLUT Selector&lt;/font&gt;" style="shape=trapezoid;perimeter=trapezoidPerimeter;whiteSpace=wrap;html=1;fixedSize=1;rotation=90;" vertex="1" parent="1">
          <mxGeometry x="762.2" y="177.81" width="133.12" height="22.5" as="geometry" />
        </mxCell>
        <mxCell id="u4fcJptLiR1B9dmW7SNI-76" value="" style="endArrow=classic;html=1;rounded=0;entryX=0.206;entryY=1.005;entryDx=0;entryDy=0;entryPerimeter=0;" edge="1" parent="1">
          <mxGeometry width="50" height="50" relative="1" as="geometry">
            <mxPoint x="790" y="144.94" as="sourcePoint" />
            <mxPoint x="817.3974999999998" y="144.8627199999999" as="targetPoint" />
          </mxGeometry>
        </mxCell>
        <mxCell id="u4fcJptLiR1B9dmW7SNI-77" value="" style="endArrow=classic;html=1;rounded=0;entryX=0.206;entryY=1.005;entryDx=0;entryDy=0;entryPerimeter=0;" edge="1" parent="1">
          <mxGeometry width="50" height="50" relative="1" as="geometry">
            <mxPoint x="780" y="160" as="sourcePoint" />
            <mxPoint x="817.3974999999998" y="159.86" as="targetPoint" />
          </mxGeometry>
        </mxCell>
        <mxCell id="u4fcJptLiR1B9dmW7SNI-78" value="" style="endArrow=classic;html=1;rounded=0;entryX=0.206;entryY=1.005;entryDx=0;entryDy=0;entryPerimeter=0;exitX=0.883;exitY=0.001;exitDx=0;exitDy=0;exitPerimeter=0;" edge="1" parent="1" source="u4fcJptLiR1B9dmW7SNI-37">
          <mxGeometry width="50" height="50" relative="1" as="geometry">
            <mxPoint x="780" y="235.14" as="sourcePoint" />
            <mxPoint x="817.3974999999998" y="235" as="targetPoint" />
          </mxGeometry>
        </mxCell>
        <mxCell id="u4fcJptLiR1B9dmW7SNI-79" value="" style="shape=waypoint;sketch=0;fillStyle=solid;size=6;pointerEvents=1;points=[];fillColor=none;resizable=0;rotatable=0;perimeter=centerPerimeter;snapToPoint=1;fontSize=11;strokeWidth=0;" vertex="1" parent="1">
          <mxGeometry x="740" y="225" width="20" height="20" as="geometry" />
        </mxCell>
        <mxCell id="u4fcJptLiR1B9dmW7SNI-80" value="" style="shape=waypoint;sketch=0;fillStyle=solid;size=6;pointerEvents=1;points=[];fillColor=none;resizable=0;rotatable=0;perimeter=centerPerimeter;snapToPoint=1;fontSize=11;strokeWidth=0;" vertex="1" parent="1">
          <mxGeometry x="770" y="150" width="20" height="20" as="geometry" />
        </mxCell>
        <mxCell id="u4fcJptLiR1B9dmW7SNI-81" value="" style="shape=waypoint;sketch=0;fillStyle=solid;size=6;pointerEvents=1;points=[];fillColor=none;resizable=0;rotatable=0;perimeter=centerPerimeter;snapToPoint=1;fontSize=11;strokeWidth=0;" vertex="1" parent="1">
          <mxGeometry x="780" y="135" width="20" height="20" as="geometry" />
        </mxCell>
        <mxCell id="u4fcJptLiR1B9dmW7SNI-82" value="" style="shape=waypoint;sketch=0;fillStyle=solid;size=6;pointerEvents=1;points=[];fillColor=none;resizable=0;rotatable=0;perimeter=centerPerimeter;snapToPoint=1;fontSize=11;strokeWidth=0;" vertex="1" parent="1">
          <mxGeometry x="750" y="210" width="20" height="20" as="geometry" />
        </mxCell>
        <mxCell id="u4fcJptLiR1B9dmW7SNI-84" value="" style="endArrow=classic;html=1;rounded=0;entryX=0.733;entryY=1.015;entryDx=0;entryDy=0;entryPerimeter=0;" edge="1" parent="1" target="u4fcJptLiR1B9dmW7SNI-74">
          <mxGeometry width="50" height="50" relative="1" as="geometry">
            <mxPoint x="760" y="220" as="sourcePoint" />
            <mxPoint x="814.1974999999998" y="219.93" as="targetPoint" />
          </mxGeometry>
        </mxCell>
        <mxCell id="u4fcJptLiR1B9dmW7SNI-86" value="&lt;font style=&quot;font-size: 19px;&quot; face=&quot;Times New Roman&quot;&gt;...&lt;/font&gt;" style="text;html=1;align=center;verticalAlign=middle;resizable=0;points=[];autosize=1;strokeColor=none;fillColor=none;rotation=90;" vertex="1" parent="1">
          <mxGeometry x="790" y="170" width="40" height="40" as="geometry" />
        </mxCell>
      </root>
    </mxGraphModel>
  </diagram>
</mxfile>
